<svg width="24" height="24" viewBox="0 0 24 24" fill="none" xmlns="http://www.w3.org/2000/svg">
<g clip-path="url(#clip0_1_1054)">
<path d="M18.24 8.975L17.494 9.06L18.239 8.975H18.24ZM18.687 12.915L19.432 12.831L18.687 12.915ZM5.31301 12.915L4.56801 12.831L5.31301 12.915ZM5.76002 8.975L6.50601 9.06L5.76002 8.975ZM4.44801 14.872L3.87701 14.386L4.44701 14.872H4.44801ZM19.552 14.872L18.982 15.358L19.552 14.872ZM14.27 4.374H13.52C13.52 4.694 13.724 4.979 14.027 5.084L14.27 4.374ZM9.73001 4.374L9.97301 5.084C10.121 5.03331 10.2495 4.93762 10.3404 4.8103C10.4313 4.68299 10.4801 4.53044 10.48 4.374H9.73001ZM15.702 20.264C15.7391 20.1713 15.7573 20.0721 15.7556 19.9723C15.7539 19.8724 15.7322 19.7739 15.6919 19.6826C15.6516 19.5912 15.5935 19.5088 15.5209 19.4402C15.4483 19.3716 15.3628 19.3182 15.2693 19.2831C15.1758 19.248 15.0762 19.232 14.9765 19.2359C14.8767 19.2398 14.7787 19.2635 14.6882 19.3058C14.5977 19.3481 14.5166 19.408 14.4496 19.4821C14.3826 19.5561 14.3311 19.6428 14.298 19.737L15.702 20.263V20.264ZM9.70201 19.737C9.66968 19.6419 9.61858 19.5543 9.55174 19.4794C9.48491 19.4044 9.4037 19.3436 9.31294 19.3007C9.22218 19.2577 9.12371 19.2334 9.02337 19.2292C8.92304 19.225 8.82288 19.2409 8.72884 19.2762C8.6348 19.3114 8.54879 19.3652 8.47592 19.4343C8.40304 19.5034 8.34479 19.5864 8.30461 19.6784C8.26443 19.7705 8.24314 19.8696 8.24201 19.97C8.24088 20.0705 8.25992 20.1701 8.29802 20.263L9.70201 19.737ZM17.777 17.25H6.22301V18.75H17.777V17.25ZM17.494 9.06L17.942 13L19.432 12.83L18.985 8.89L17.495 9.06H17.494ZM6.05801 13L6.50601 9.06L5.01601 8.89L4.56801 12.83L6.05801 13ZM5.01801 15.358C5.59236 14.6934 5.95488 13.8722 6.05901 13L4.56901 12.83C4.49919 13.406 4.25853 13.948 3.87801 14.386L5.02001 15.358H5.01801ZM17.943 13C18.041 13.865 18.405 14.68 18.983 15.358L20.124 14.386C19.7437 13.9482 19.503 13.4067 19.433 12.831L17.943 13ZM6.22301 17.25C5.56901 17.25 5.10502 16.926 4.89201 16.55C4.68501 16.185 4.68801 15.748 5.02001 15.358L3.87801 14.386C3.11201 15.285 3.08801 16.412 3.58701 17.29C4.07701 18.154 5.05001 18.75 6.22401 18.75V17.25H6.22301ZM17.778 18.75C18.952 18.75 19.924 18.154 20.415 17.29C20.913 16.412 20.89 15.285 20.125 14.386L18.982 15.358C19.314 15.748 19.317 16.185 19.11 16.549C18.897 16.926 18.433 17.25 17.778 17.25V18.75ZM15.02 4.374V4.27H13.52V4.374H15.02ZM18.985 8.891C18.705 6.431 16.881 4.475 14.513 3.664L14.027 5.084C15.944 5.74 17.291 7.271 17.494 9.06L18.984 8.89L18.985 8.891ZM10.48 4.374V4.27H8.98001V4.374H10.48ZM6.50601 9.06C6.70901 7.271 8.05601 5.74 9.97301 5.083L9.48702 3.664C7.11902 4.474 5.29401 6.43 5.01501 8.891L6.50501 9.06H6.50601ZM12 2.75C12.84 2.75 13.52 3.43 13.52 4.27H15.02C15.02 3.46905 14.7018 2.7009 14.1355 2.13454C13.5691 1.56818 12.801 1.25 12 1.25V2.75ZM12 1.25C11.1991 1.25 10.4309 1.56818 9.86455 2.13454C9.29819 2.7009 8.98001 3.46905 8.98001 4.27H10.48C10.48 3.43 11.16 2.75 12 2.75V1.25ZM14.298 19.737C13.975 20.597 13.085 21.25 12 21.25V22.75C13.685 22.75 15.152 21.733 15.702 20.263L14.298 19.737ZM12 21.25C10.915 21.25 10.025 20.598 9.70201 19.737L8.29802 20.263C8.84802 21.733 10.315 22.75 12 22.75V21.25Z" fill="#666666"/>
</g>
<defs>
<clipPath id="clip0_1_1054">
<rect width="24" height="24" fill="white"/>
</clipPath>
</defs>
</svg>
